# xmcd
#
# Track frame offsets:
#	150
#	18939
#	30207
#	44347
#	58736
#	77543
#	87555
#	100678
#	117390
#	132098
#	145090
#	161789
#	172759
#	185592
#
# Disc length: 2725 seconds
#
# Revision: 0
# Processed by: cddbd v1.5.1PL2 Copyright (c) Steve Scherf et al.
# Submitted via: dBpowerAMP V4.0
#
DISCID=ab0aa30e
DTITLE=Don Williams - Greatest Hits
DYEAR=1900
DGENRE=
TTITLE0=I Believe In You
TTITLE1=It Must Be Love
TTITLE2=Come Early Morning
TTITLE3=Listen To The Radio
TTITLE4=Lord, I Hope This Day Is Good
TTITLE5=Louisiana Saturday Night
TTITLE6=Rake And Ramblin' Man
TTITLE7=That's The Thing About Love
TTITLE8=Tulsa Time
TTITLE9=You're My Best Friend
TTITLE10=Take It Easy On Yourself
TTITLE11=Turn On The Light And Love Me Tonight
TTITLE12=Some Broken Hearts Never Mend
TTITLE13=Good Ol' Boys Like Me
EXTD=
EXTT0=
EXTT1=
EXTT2=
EXTT3=
EXTT4=
EXTT5=
EXTT6=
EXTT7=
EXTT8=
EXTT9=
EXTT10=
EXTT11=
EXTT12=
EXTT13=
PLAYORDER=
